<?xml version="1.0" standalone="no"?><!DOCTYPE svg PUBLIC "-//W3C//DTD SVG 1.1//EN" "http://www.w3.org/Graphics/SVG/1.1/DTD/svg11.dtd"><svg t="1706511908560" class="icon" viewBox="0 0 1024 1024" version="1.1" xmlns="http://www.w3.org/2000/svg" p-id="7453" xmlns:xlink="http://www.w3.org/1999/xlink" width="32" height="32"><path d="M514.553 928.219c-16.707 0-33.392-6.326-46.13-18.968l-66.57-66.122c-95.759-95.065-227.854-226.254-230.308-228.707-47.666-47.677-73.953-111.153-73.953-178.652 0-67.509 26.287-130.975 74.017-178.705 47.73-47.741 111.185-74.027 178.694-74.027 60.468 0 117.714 21.091 163.289 59.807 47.517-40.134 109.009-61.652 171.44-59.679 70.56 2.283 135.189 32.869 181.98 86.136 87.502 99.621 79.991 253.693-17.069 350.764l-288.94 288.939c-12.802 12.802-29.616 19.214-46.45 19.214z m-164.25-701.485c-55.838 0-108.326 21.742-147.799 61.225s-61.215 91.972-61.215 147.81c0 55.827 21.742 108.326 61.215 147.81 2.88 2.891 134.613 133.706 230.137 228.547l66.592 66.122c8.513 8.481 22.361 8.375 30.874-0.139l288.941-288.941c80.823-80.834 87.459-208.662 15.149-291.032-38.747-44.092-92.217-69.408-150.573-71.296-58.612-1.835-113.319 19.822-154.605 61.119-8.193 8.193-22.702 8.193-30.895 0-39.495-39.483-91.983-61.225-147.821-61.225z" p-id="7454" fill="#764C46"></path></svg>