<?xml version="1.0" standalone="no"?><!DOCTYPE svg PUBLIC "-//W3C//DTD SVG 1.1//EN" "http://www.w3.org/Graphics/SVG/1.1/DTD/svg11.dtd"><svg t="1707208772615" class="icon" viewBox="0 0 1024 1024" version="1.1" xmlns="http://www.w3.org/2000/svg" p-id="7337" xmlns:xlink="http://www.w3.org/1999/xlink" width="32" height="32"><path d="M660.63 298.75l-308 462A159.66 159.66 0 0 1 219.5 832H96a32 32 0 0 1 0-64h123.5a95.79 95.79 0 0 0 79.87-42.75l308-462A159.65 159.65 0 0 1 740.5 192h110.25l-9.38-9.37a32 32 0 0 1 45.26-45.26l64 64a32 32 0 0 1 0 45.26l-64 64a32 32 0 0 1-45.26-45.26l9.38-9.37H740.5a95.79 95.79 0 0 0-79.87 42.75zM96 256h123.5a95.79 95.79 0 0 1 79.87 42.75l68.67 103a32 32 0 1 0 53.25-35.5l-68.67-103A159.66 159.66 0 0 0 219.5 192H96a32 32 0 0 0 0 64z m790.63 457.37a32 32 0 0 0-45.26 45.26l9.38 9.37H740.5a95.79 95.79 0 0 1-79.87-42.75l-68.63-103a32 32 0 1 0-53.25 35.5l68.67 103A159.65 159.65 0 0 0 740.5 832h110.25l-9.38 9.37a32 32 0 0 0 45.26 45.26l64-64a32 32 0 0 0 0-45.26z" fill="#FF5966" p-id="7338"></path></svg>