<?xml version="1.0" encoding="UTF-8"?>
<svg xmlns="http://www.w3.org/2000/svg" xmlns:xlink="http://www.w3.org/1999/xlink" viewBox="0 0 1000 1000">
  <defs>
    <style>
      .cls-1 {
        font-family: SegoeScript-Bold, 'Segoe Script';
        font-size: 101.83px;
        font-weight: 700;
        letter-spacing: .2em;
      }

      .cls-1, .cls-2 {
        fill: #fff;
      }

      .cls-3 {
        fill: url(#_未命名的渐变_9);
      }
    </style>
    <linearGradient id="_未命名的渐变_9" data-name="未命名的渐变 9" x1="35.15" y1="964.85" x2="964.85" y2="35.15" gradientUnits="userSpaceOnUse">
      <stop offset="0" stop-color="#5a4791"/>
      <stop offset=".28" stop-color="#0962b2"/>
      <stop offset=".44" stop-color="#007bc4"/>
      <stop offset=".58" stop-color="#0092c4"/>
      <stop offset=".71" stop-color="#00a6b2"/>
      <stop offset="1" stop-color="#00b694"/>
    </linearGradient>
  </defs>
  <g id="_背景" data-name="背景">
    <rect class="cls-3" width="1000" height="1000" rx="120" ry="120"/>
  </g>
  <g id="_图层_1" data-name="图层_1">
    <path class="cls-2" d="M390.16,727.56c-26.66,0-53.32-5.92-78.2-17.77-43.84-20.73-77.01-57.46-93.01-103.08-16-45.62-13.63-94.79,7.11-138.63,43.25-90.05,151.66-128.56,242.3-85.9,35.55,17.18,64.57,45.02,82.94,79.98l65.76-137.44c21.92-45.62,76.42-65.17,122.04-43.25l35.55,17.18c14.81,7.11,21.33,24.88,14.22,40.28-14.81,30.81-34.95,42.65-49.17,46.8-18.37,5.92-39.1,3.55-59.83-6.52l-.59-.59c-2.37-1.18-4.74-.59-5.92-.59-1.18.59-2.96,1.18-4.15,4.15,0,0-114.34,239.34-115.52,242.3-20.73,43.84-57.46,77.01-103.08,93.01-19.55,6.52-40.28,10.07-60.43,10.07h0ZM390.16,396.99c-55.69,0-109.01,31.4-134.48,84.72-17.18,36.14-19.55,76.42-5.92,113.74,13.63,37.32,40.28,68.13,76.42,85.31,36.14,17.18,76.42,18.96,113.74,5.92,37.32-13.03,67.54-40.28,84.72-76.42,1.18-2.37,115.52-242.3,115.52-242.3,4.74-9.48,13.03-17.18,23.1-20.73,10.07-3.55,21.33-2.96,30.81,1.78h.59c8.89,4.15,23.1,8.89,36.14,4.74,11.26-3.55,20.73-13.03,28.44-27.84l-33.77-16c-29.62-14.22-65.17-1.78-78.79,27.84l-69.91,146.92c-4.74,10.07-14.22,16-25.47,16s-20.73-6.52-25.47-16.59c-14.22-31.4-39.69-57.46-71.09-72.28-21.33-10.07-42.65-14.81-64.57-14.81h0Z"/>
    <path class="cls-2" d="M387.19,615.75c-35.55,0-64.57-29.03-64.57-64.57s29.03-64.57,64.57-64.57,64.57,29.03,64.57,64.57-29.03,64.57-64.57,64.57h0ZM387.19,518.59c-17.77,0-32.58,14.81-32.58,32.58s14.81,32.58,32.58,32.58,32.58-14.81,32.58-32.58c-.59-17.77-14.81-32.58-32.58-32.58Z"/>
    <text class="cls-1" transform="translate(616.27 615.92)"><tspan x="0" y="0">FM</tspan></text>
  </g>
</svg>